<svg width="909" height="259" viewBox="0 0 909 259" fill="none" xmlns="http://www.w3.org/2000/svg">
<path d="M901.707 258.207C901.317 258.598 900.683 258.598 900.293 258.207L893.929 251.843C893.538 251.453 893.538 250.819 893.929 250.429C894.319 250.038 894.953 250.038 895.343 250.429L901 256.086L906.657 250.429C907.047 250.038 907.681 250.038 908.071 250.429C908.462 250.819 908.462 251.453 908.071 251.843L901.707 258.207ZM17.0001 0.999992L17.0001 1.99999L17.0001 0.999992ZM885 0.999999L885 -6.99383e-07L885 0.999999ZM901 17L900 17L901 17ZM885 2L17.0001 1.99999L17.0001 -8.12329e-06L885 -6.99383e-07L885 2ZM2.00007 17L2.00006 258L6.10352e-05 258L7.15696e-05 17L2.00007 17ZM902 17L902 257.5L900 257.5L900 17L902 17ZM17.0001 1.99999C8.71583 1.99999 2.00007 8.71572 2.00007 17L7.15696e-05 17C7.198e-05 7.61115 7.61128 -8.53368e-06 17.0001 -8.12329e-06L17.0001 1.99999ZM885 -6.99383e-07C894.389 -2.88983e-07 902 7.61116 902 17L900 17C900 8.71573 893.284 2 885 2L885 -6.99383e-07Z" fill="#3B8DBC" fill-opacity="0.7"/>
</svg>
